<svg width="118" height="32" viewBox="0 0 118 32" fill="none" xmlns="http://www.w3.org/2000/svg">
<path fill-rule="evenodd" clip-rule="evenodd" d="M25.3079 9.19399C25.0672 8.91097 24.6141 8.94778 24.3834 9.23835C22.4608 11.6603 19.421 13.2239 16 13.2239C12.579 13.2239 9.5392 11.6603 7.61655 9.23836C7.38589 8.94779 6.9328 8.91099 6.69213 9.194C5.00911 11.1732 4 13.6993 4 16.4513C4 19.2507 5.04423 21.8165 6.77986 23.8105C7.0202 24.0867 7.46471 24.0512 7.69552 23.7677C9.62186 21.4017 12.6255 19.8804 16 19.8804C19.3745 19.8804 22.3781 21.4017 24.3045 23.7677C24.5353 24.0512 24.9798 24.0867 25.2201 23.8106C26.9558 21.8165 28 19.2507 28 16.4513C28 13.6993 26.9909 11.1732 25.3079 9.19399Z" fill="#FAFDF7"/>
<path d="M35 12.6992H36.7828V9.717H39.5906V12.6992H43.379V14.981H39.5906V19.7479C39.5906 20.0491 39.6426 20.26 39.7466 20.3805C39.8655 20.4859 40.066 20.5386 40.3483 20.5386H43.3567V22.8656H40.3483C38.9815 22.8656 38.0456 22.6623 37.5405 22.2556C37.0353 21.849 36.7828 21.0131 36.7828 19.7479V14.981H35V12.6992Z" fill="#FAFDF7"/>
<path d="M47.9768 12.6992V14.5969C48.5859 13.3317 49.6185 12.6992 51.0744 12.6992H53.1469V14.981H51.1412C49.819 14.981 48.9722 15.3274 48.6008 16.0202C48.2294 16.713 48.0437 18.0535 48.0437 20.0416V22.8656H45.1912V12.6992H47.9768Z" fill="#FAFDF7"/>
<path d="M55.4878 13.9869C56.6763 12.9778 58.2808 12.4732 60.3013 12.4732C62.3366 12.4732 63.9411 12.9853 65.1148 14.0095C66.3033 15.0186 66.8975 16.2763 66.8975 17.7824C66.8975 19.3187 66.3033 20.5914 65.1148 21.6005C63.9411 22.5945 62.3366 23.0916 60.3013 23.0916C58.2808 23.0916 56.6763 22.587 55.4878 21.5779C54.2993 20.5537 53.705 19.2885 53.705 17.7824C53.705 16.2763 54.2993 15.0111 55.4878 13.9869ZM56.602 17.7824C56.602 18.656 56.9289 19.394 57.5825 19.9964C58.2362 20.5989 59.1425 20.9001 60.3013 20.9001C61.4601 20.9001 62.3663 20.5989 63.02 19.9964C63.6885 19.394 64.0228 18.656 64.0228 17.7824C64.0228 16.8637 63.696 16.1106 63.0423 15.5232C62.3886 14.9509 61.4749 14.6647 60.3013 14.6647C59.1276 14.6647 58.2139 14.9584 57.5603 15.5458C56.9214 16.1181 56.602 16.8637 56.602 17.7824Z" fill="#FAFDF7"/>
<path d="M71.4648 12.6992V14.3484C72.3414 13.1887 73.5745 12.5787 75.1641 12.5184C75.3275 12.5184 75.4909 12.5184 75.6544 12.5184C77.4669 12.5184 78.9376 13.0079 80.0667 13.9869C81.2107 14.9509 81.7826 16.2235 81.7826 17.805C81.7826 19.4316 81.2181 20.7194 80.089 21.6683C78.9748 22.6021 77.5188 23.069 75.7212 23.069C75.5281 23.069 75.3349 23.0614 75.1418 23.0464C73.6116 22.9711 72.4082 22.3837 71.5317 21.2842V27H68.7015V12.6992H71.4648ZM72.5791 20.0642C73.307 20.6064 74.2059 20.8775 75.2755 20.8775C76.2858 20.8775 77.14 20.6064 77.8383 20.0642C78.5365 19.522 78.8856 18.7689 78.8856 17.805C78.8856 16.826 78.5365 16.0654 77.8383 15.5232C77.1549 14.9659 76.3006 14.6873 75.2755 14.6873C74.191 14.6873 73.2848 14.9358 72.5568 15.4328C71.8437 15.9298 71.4871 16.713 71.4871 17.7824C71.4871 18.7765 71.8511 19.5371 72.5791 20.0642Z" fill="#FAFDF7"/>
<path d="M86.6764 12.6992V22.8656H83.8462V12.6992H86.6764ZM83.5343 9.76219C83.5343 9.28022 83.6977 8.86603 84.0245 8.51962C84.3662 8.17321 84.7673 8 85.2279 8C85.7033 8 86.1119 8.17321 86.4535 8.51962C86.7952 8.86603 86.9661 9.28022 86.9661 9.76219C86.9661 10.2291 86.7952 10.6358 86.4535 10.9822C86.1119 11.3135 85.7033 11.4792 85.2279 11.4792C84.7673 11.4792 84.3662 11.3135 84.0245 10.9822C83.6977 10.6358 83.5343 10.2291 83.5343 9.76219Z" fill="#FAFDF7"/>
<path d="M89.162 22.8656V8.33888H92.0144V17.4661L97.3628 12.6992H100.906L96.0034 17.0369L101.508 22.8656H98.1873L94.1761 18.6183L92.0144 20.5386V22.8656H89.162Z" fill="#FAFDF7"/>
<path d="M102.59 13.9869C103.779 12.9778 105.383 12.4732 107.404 12.4732C109.439 12.4732 111.044 12.9853 112.217 14.0095C113.406 15.0186 114 16.2763 114 17.7824C114 19.3187 113.406 20.5914 112.217 21.6005C111.044 22.5945 109.439 23.0916 107.404 23.0916C105.383 23.0916 103.779 22.587 102.59 21.5779C101.402 20.5537 100.807 19.2885 100.807 17.7824C100.807 16.2763 101.402 15.0111 102.59 13.9869ZM103.704 17.7824C103.704 18.656 104.031 19.394 104.685 19.9964C105.339 20.5989 106.245 20.9001 107.404 20.9001C108.563 20.9001 109.469 20.5989 110.122 19.9964C110.791 19.394 111.125 18.656 111.125 17.7824C111.125 16.8637 110.798 16.1106 110.145 15.5232C109.491 14.9509 108.577 14.6647 107.404 14.6647C106.23 14.6647 105.316 14.9584 104.663 15.5458C104.024 16.1181 103.704 16.8637 103.704 17.7824Z" fill="#FAFDF7"/>
</svg>
